<svg id="Слой_1" data-name="Слой 1" xmlns="http://www.w3.org/2000/svg" viewBox="0 0 256 256"><defs><style>.cls-1{fill:#412245;}.cls-2{fill:#c09bc4;stroke-linecap:round;}.cls-2,.cls-3,.cls-4{stroke:#412245;stroke-miterlimit:10;}.cls-3{fill:#713b78;}.cls-4{fill:#ba60c4;}</style></defs><title>Mushroots_Logo</title><rect class="cls-1" width="256" height="256"/><path class="cls-2" d="M36.12,125.83a92,92,0,0,1,3.35-24.66H26.2a106.05,106.05,0,0,0,0,53.66H40.8A91.54,91.54,0,0,1,36.12,125.83ZM229.8,101.17H216.53a92.3,92.3,0,0,1-1.33,53.66h14.6a106.05,106.05,0,0,0,0-53.66ZM128,217.71a91.84,91.84,0,0,1-78.76-44.54H32.92a105.27,105.27,0,0,0,190.16,0H206.76A91.84,91.84,0,0,1,128,217.71Zm0-195A105.22,105.22,0,0,0,32.92,82.83H46.79a91.9,91.9,0,0,1,162.42,0h13.87A105.22,105.22,0,0,0,128,22.75Z"/><path class="cls-3" d="M97.67,184.67c-1.62-5.19,8.7-9.11,17.66-23,5.6-8.68,11.19-22.07,7-26.17-1.86-1.83-4.48-.62-14.88,1.17-18.54,3.18-26.78,2.15-30.79,1.42-5-.92-12.62-2.32-13.53-6.33s6.3-7.13,14.49-17.09A72.85,72.85,0,0,0,89.33,94.33c5-12.68,2.39-16.74,8.34-29.33,2.69-5.7,4.87-9.86,9-12,8.51-4.45,19.43,3.06,20.32,3.69,4.52,3.19,4,5.09,8,9C145.37,75.9,166.39,80.22,180.17,79c1.9-.17,6-.65,7.83,1.67,2.35,3-.42,8.76-1.17,10.33-1.69,3.55-6.08,10.81-30.83,25.5-4.37,2.59-7.23,4.14-9.12,7.75-3.19,6.05-.94,12.65.45,17.75.8,2.92,9.75,36.82-1.33,46.33-2.33,2-7.56,2.45-18,3.34-10.21.86-15.49-.24-17.33-.67C104.52,189.57,98.78,188.24,97.67,184.67Z"/><path class="cls-4" d="M114.17,54.33c-.37.72,2.73,1.91,5.33,5.33,3.67,4.85,4.28,11.43,5,19.17a20.48,20.48,0,0,0,1,5c.76,2.26,1.56,4.62,3.5,6.17,3.32,2.65,9.11,2.27,12.83.83a10.4,10.4,0,0,1,4.84-1.16,6,6,0,0,1,4.16,1.66c1,1.1,1.26,2.73.5,6.84a39.77,39.77,0,0,1-3.16,10.16c-6.52,11.7-46.11,23-45.84,24.34.09.42,4.44.68,14.17-1.5,0,0,27.84-6.26,59.33-35.67,1-1,5.61-5.33,5-9.33a4.6,4.6,0,0,0-.66-1.84c-1.65-2.59-5.51-2.65-6.17-2.66-2.75,0-2.79,1-7.5,1.66a13.51,13.51,0,0,1-4.5,0c-.86-.15-1.07-.29-2.17-.5a27.11,27.11,0,0,0-4-.33,22.66,22.66,0,0,1-5.5-1.17A23,23,0,0,1,146,79.17a38.64,38.64,0,0,1-6.5-4.84c-7.89-7.27-9-13.93-16.67-18C119,54.29,114.58,53.53,114.17,54.33Z"/><path class="cls-4" d="M142.17,134.67c-.55.07.07,18.28-.67,33a20.07,20.07,0,0,1-2,8.16,20.59,20.59,0,0,1-8.17,8.5c-6.61,3.8-13.17,2.71-13.16,3.34s5.39,1.33,11.33.83c4.34-.37,7.54-.67,10.67-2.83a17,17,0,0,0,5.66-7.5c2.56-6,1.73-11-.66-26.34C143.49,141.1,142.5,134.62,142.17,134.67Z"/></svg>